<svg width="91" height="28" viewBox="0 0 91 28" fill="none" xmlns="http://www.w3.org/2000/svg">
<path d="M7.93396 20L5.08587 14.9696H3.86526V20H1.27609V7.09114H6.12154C7.12022 7.09114 7.97095 7.26991 8.67372 7.62747C9.37649 7.97269 9.90049 8.44737 10.2457 9.05151C10.6033 9.64332 10.782 10.3091 10.782 11.0489C10.782 11.8996 10.5355 12.6702 10.0423 13.3606C9.54911 14.0387 8.81551 14.5073 7.84149 14.7662L10.93 20H7.93396ZM3.86526 13.0277H6.02907C6.73184 13.0277 7.25584 12.8613 7.60106 12.5284C7.94629 12.1832 8.1189 11.7085 8.1189 11.1044C8.1189 10.5125 7.94629 10.0564 7.60106 9.73579C7.25584 9.4029 6.73184 9.23645 6.02907 9.23645H3.86526V13.0277ZM15.713 9.18097V12.4174H20.0591V14.4703H15.713V17.8917H20.614V20H13.1239V7.07264H20.614V9.18097H15.713Z" fill="#FF0000"/>
<path d="M48.9724 14.6552C48.9724 15.0251 48.9478 15.358 48.8984 15.6539H41.4083C41.47 16.3937 41.7289 16.9731 42.1851 17.3923C42.6413 17.8115 43.2023 18.0211 43.868 18.0211C44.8297 18.0211 45.514 17.6081 45.9209 16.782H48.7135C48.4176 17.7684 47.8504 18.5821 47.012 19.2232C46.1736 19.852 45.1441 20.1664 43.9235 20.1664C42.9372 20.1664 42.0495 19.9507 41.2604 19.5192C40.4836 19.0753 39.8733 18.4527 39.4295 17.6513C38.9979 16.8498 38.7822 15.9251 38.7822 14.8771C38.7822 13.8168 38.9979 12.8859 39.4295 12.0845C39.861 11.2831 40.4651 10.6667 41.2419 10.2351C42.0186 9.8036 42.9125 9.58784 43.9235 9.58784C44.8976 9.58784 45.7668 9.79744 46.5312 10.2166C47.3079 10.6358 47.9059 11.2338 48.3251 12.0106C48.7566 12.775 48.9724 13.6565 48.9724 14.6552ZM46.2908 13.9154C46.2784 13.2497 46.038 12.7195 45.5695 12.325C45.101 11.9181 44.5277 11.7147 43.8496 11.7147C43.2084 11.7147 42.6659 11.9119 42.2221 12.3065C41.7905 12.6887 41.5255 13.225 41.4268 13.9154H46.2908ZM54.783 20.1664C53.9446 20.1664 53.1925 20.0185 52.5267 19.7226C51.861 19.4144 51.3308 19.0013 50.9363 18.4835C50.554 17.9657 50.3444 17.3923 50.3075 16.7635H52.9151C52.9644 17.1581 53.1555 17.4848 53.4884 17.7437C53.8337 18.0026 54.259 18.1321 54.7645 18.1321C55.2577 18.1321 55.6399 18.0335 55.9112 17.8362C56.1947 17.6389 56.3365 17.3862 56.3365 17.0779C56.3365 16.745 56.1639 16.4985 55.8187 16.3382C55.4858 16.1656 54.9495 15.9806 54.2097 15.7834C53.4453 15.5984 52.8165 15.4073 52.3233 15.21C51.8425 15.0128 51.4233 14.7107 51.0657 14.3038C50.7205 13.897 50.5479 13.3483 50.5479 12.6579C50.5479 12.0907 50.7082 11.5729 51.0287 11.1044C51.3616 10.6358 51.8301 10.266 52.4343 9.99471C53.0507 9.72346 53.772 9.58784 54.5981 9.58784C55.8187 9.58784 56.7927 9.89607 57.5201 10.5125C58.2476 11.1167 58.6483 11.9366 58.7223 12.9723H56.2441C56.2071 12.5654 56.0345 12.2448 55.7262 12.0106C55.4303 11.764 55.0296 11.6407 54.5241 11.6407C54.0556 11.6407 53.6919 11.727 53.433 11.8996C53.1864 12.0722 53.0631 12.3126 53.0631 12.6209C53.0631 12.9661 53.2357 13.2312 53.5809 13.4161C53.9261 13.5887 54.4625 13.7675 55.1899 13.9524C55.9297 14.1374 56.54 14.3285 57.0208 14.5258C57.5016 14.723 57.9147 15.0313 58.2599 15.4505C58.6175 15.8573 58.8024 16.3998 58.8147 17.0779C58.8147 17.6697 58.6483 18.1999 58.3154 18.6684C57.9948 19.1369 57.5263 19.5068 56.9098 19.7781C56.3057 20.037 55.5968 20.1664 54.783 20.1664ZM62.2532 8.53368C61.797 8.53368 61.4148 8.39189 61.1065 8.10831C60.8106 7.81241 60.6627 7.44869 60.6627 7.01716C60.6627 6.58563 60.8106 6.22808 61.1065 5.9445C61.4148 5.6486 61.797 5.50065 62.2532 5.50065C62.7094 5.50065 63.0854 5.6486 63.3813 5.9445C63.6896 6.22808 63.8437 6.58563 63.8437 7.01716C63.8437 7.44869 63.6896 7.81241 63.3813 8.10831C63.0854 8.39189 62.7094 8.53368 62.2532 8.53368ZM63.5293 9.75428V20H60.9401V9.75428H63.5293ZM70.1006 9.58784C70.865 9.58784 71.537 9.74195 72.1164 10.0502C72.6959 10.3461 73.1521 10.7345 73.485 11.2153V9.75428H76.0927V20.074C76.0927 21.0233 75.9016 21.8679 75.5194 22.6077C75.1371 23.3598 74.5638 23.9516 73.7994 24.3831C73.035 24.827 72.1103 25.0489 71.0253 25.0489C69.5704 25.0489 68.3745 24.7098 67.4374 24.0317C66.5127 23.3536 65.9887 22.4289 65.8654 21.2576H68.4361C68.5717 21.7261 68.8615 22.096 69.3053 22.3672C69.7615 22.6508 70.3102 22.7926 70.9513 22.7926C71.7034 22.7926 72.3137 22.5645 72.7822 22.1083C73.2507 21.6645 73.485 20.9864 73.485 20.074V18.4835C73.1521 18.9643 72.6898 19.365 72.098 19.6856C71.5185 20.0062 70.8527 20.1664 70.1006 20.1664C69.2375 20.1664 68.4485 19.9445 67.7334 19.5007C67.0182 19.0568 66.4511 18.4342 66.0319 17.6328C65.625 16.819 65.4216 15.8882 65.4216 14.8402C65.4216 13.8045 65.625 12.8859 66.0319 12.0845C66.4511 11.2831 67.0121 10.6667 67.7149 10.2351C68.43 9.8036 69.2252 9.58784 70.1006 9.58784ZM73.485 14.8771C73.485 14.2483 73.3617 13.712 73.1151 13.2682C72.8685 12.812 72.5356 12.4667 72.1164 12.2325C71.6972 11.9859 71.2472 11.8626 70.7664 11.8626C70.2855 11.8626 69.8417 11.9797 69.4348 12.214C69.0279 12.4483 68.695 12.7935 68.4361 13.2497C68.1895 13.6935 68.0662 14.2237 68.0662 14.8402C68.0662 15.4566 68.1895 15.9991 68.4361 16.4676C68.695 16.9238 69.0279 17.2752 69.4348 17.5218C69.854 17.7684 70.2979 17.8917 70.7664 17.8917C71.2472 17.8917 71.6972 17.7745 72.1164 17.5403C72.5356 17.2937 72.8685 16.9485 73.1151 16.5046C73.3617 16.0484 73.485 15.5059 73.485 14.8771ZM84.2991 9.60633C85.5197 9.60633 86.5061 9.99471 87.2582 10.7715C88.0103 11.5359 88.3863 12.6085 88.3863 13.9894V20H85.7971V14.3408C85.7971 13.5271 85.5937 12.9044 85.1868 12.4729C84.78 12.0291 84.2251 11.8071 83.5224 11.8071C82.8073 11.8071 82.2401 12.0291 81.8209 12.4729C81.414 12.9044 81.2106 13.5271 81.2106 14.3408V20H78.6214V9.75428H81.2106V11.0304C81.5558 10.5865 81.9935 10.2413 82.5237 9.99471C83.0662 9.73579 83.658 9.60633 84.2991 9.60633Z" fill="#FF0000"/>
<path d="M24.0391 8.28809V19.2452H30.758C33.7837 19.2452 36.2366 16.7923 36.2366 13.7666C36.2366 10.7409 33.7837 8.28809 30.758 8.28809H24.0391Z" stroke="#FF0000" stroke-width="2.27411"/>
<path d="M28.7744 8.47656V19.2648" stroke="#FF0000" stroke-width="2.27411"/>
</svg>
