<svg width="1033" height="123" viewBox="0 0 1033 123" fill="none" xmlns="http://www.w3.org/2000/svg">
<path d="M1031 66.3629C1016.92 82.6499 1000.76 94.0457 980.555 102.881C943.617 119.035 907.397 118.202 868.399 108.865C841.098 102.33 815.086 92.4248 788.89 82.7899C768.269 75.2051 747.482 66.9683 725.258 64.7752C712.419 63.5082 696.337 63.5845 685.184 70.8819C675.428 77.2647 667.373 89.8146 673.602 101.299C681.371 115.625 700.696 120.084 705.875 108.7C712.958 93.1306 690.336 85.1735 662.246 83.6522C638.327 82.3568 613.238 84.2555 558.254 106.606C476.375 135.58 363.5 116.346 284.5 98.5C155 69.2455 143.73 66.8954 -1.5 2" stroke="url(#paint0_linear_836_206)" stroke-width="3" stroke-linecap="round"/>
<defs>
<linearGradient id="paint0_linear_836_206" x1="1031" y1="35.5" x2="-39.9999" y2="35.5" gradientUnits="userSpaceOnUse">
<stop offset="0.0210782" stop-color="#FF0000" stop-opacity="0"/>
<stop offset="0.202296" stop-color="#FF0000"/>
<stop offset="1" stop-color="#FF0000"/>
</linearGradient>
</defs>
</svg>
