<svg width="537" height="172" viewBox="0 0 537 172" fill="none" xmlns="http://www.w3.org/2000/svg">
<path d="M49.3251 126L31.6187 94.7262H24.0302V126H7.93342V45.746H38.0574C44.2662 45.746 49.5551 46.8575 53.9242 49.0804C58.2934 51.2266 61.551 54.1777 63.6973 57.9336C65.9202 61.6129 67.0316 65.752 67.0316 70.3511C67.0316 75.6401 65.4986 80.4308 62.4325 84.7232C59.3665 88.9391 54.8057 91.8518 48.7503 93.4615L67.9514 126H49.3251ZM24.0302 82.6537H37.4825C41.8516 82.6537 45.1093 81.6189 47.2556 79.5493C49.4018 77.403 50.4749 74.452 50.4749 70.696C50.4749 67.0168 49.4018 64.1807 47.2556 62.1878C45.1093 60.1182 41.8516 59.0834 37.4825 59.0834H24.0302V82.6537ZM97.6873 58.7384V78.8594H124.707V91.6219H97.6873V112.893H128.156V126H81.5906V45.6311H128.156V58.7384H97.6873ZM170.839 45.746C179.27 45.746 186.667 47.394 193.029 50.69C199.468 53.9861 204.412 58.7001 207.861 64.8322C211.387 70.8877 213.15 77.9396 213.15 85.988C213.15 94.0364 211.387 101.088 207.861 107.144C204.412 113.123 199.468 117.76 193.029 121.056C186.667 124.352 179.27 126 170.839 126H142.784V45.746H170.839ZM170.264 112.318C178.696 112.318 185.211 110.018 189.81 105.419C194.409 100.82 196.709 94.343 196.709 85.988C196.709 77.633 194.409 71.1176 189.81 66.4419C185.211 61.6895 178.696 59.3133 170.264 59.3133H158.881V112.318H170.264Z" fill="#FF0000"/>
<path d="M284.413 92.7716C284.413 95.0712 284.259 97.1408 283.953 98.9804H237.387C237.77 103.579 239.38 107.182 242.216 109.788C245.052 112.394 248.54 113.697 252.679 113.697C258.658 113.697 262.912 111.13 265.442 105.994H282.803C280.963 112.126 277.437 117.185 272.225 121.171C267.013 125.08 260.612 127.035 253.024 127.035C246.892 127.035 241.373 125.693 236.467 123.011C231.638 120.251 227.844 116.38 225.085 111.398C222.402 106.416 221.06 100.667 221.06 94.1514C221.06 87.5593 222.402 81.7722 225.085 76.7898C227.767 71.8075 231.523 67.9749 236.352 65.2921C241.181 62.6093 246.739 61.2679 253.024 61.2679C259.079 61.2679 264.483 62.571 269.236 65.1772C274.065 67.7833 277.782 71.5009 280.389 76.3299C283.071 81.0823 284.413 86.5629 284.413 92.7716ZM267.741 88.1726C267.664 84.0334 266.17 80.7374 263.257 78.2845C260.344 75.755 256.78 74.4903 252.564 74.4903C248.578 74.4903 245.206 75.7167 242.446 78.1696C239.763 80.5457 238.115 83.8801 237.502 88.1726H267.741ZM320.537 127.035C315.325 127.035 310.649 126.115 306.51 124.275C302.371 122.359 299.075 119.791 296.622 116.572C294.246 113.353 292.943 109.788 292.713 105.879H308.924C309.231 108.332 310.419 110.363 312.489 111.973C314.635 113.582 317.279 114.387 320.422 114.387C323.488 114.387 325.864 113.774 327.551 112.548C329.314 111.321 330.195 109.75 330.195 107.834C330.195 105.764 329.122 104.231 326.976 103.235C324.906 102.161 321.572 101.012 316.973 99.7852C312.22 98.6355 308.311 97.4474 305.245 96.221C302.256 94.9945 299.65 93.1166 297.427 90.5871C295.28 88.0576 294.207 84.6466 294.207 80.3541C294.207 76.8282 295.204 73.6088 297.197 70.696C299.266 67.7833 302.179 65.4838 305.935 63.7974C309.768 62.1111 314.252 61.2679 319.387 61.2679C326.976 61.2679 333.031 63.1842 337.554 67.0168C342.076 70.7727 344.567 75.87 345.027 82.3087H329.62C329.39 79.7792 328.317 77.7863 326.401 76.3299C324.561 74.7969 322.07 74.0304 318.927 74.0304C316.015 74.0304 313.753 74.5669 312.144 75.6401C310.611 76.7132 309.844 78.2079 309.844 80.1242C309.844 82.2704 310.917 83.9184 313.064 85.0682C315.21 86.1413 318.544 87.2527 323.067 88.4025C327.666 89.5523 331.46 90.7404 334.449 91.9668C337.439 93.1932 340.007 95.1095 342.153 97.7157C344.376 100.245 345.525 103.618 345.602 107.834C345.602 111.513 344.567 114.809 342.498 117.722C340.505 120.634 337.592 122.934 333.759 124.62C330.004 126.23 325.596 127.035 320.537 127.035ZM366.979 54.7142C364.143 54.7142 361.767 53.8328 359.85 52.0698C358.011 50.2301 357.091 47.9689 357.091 45.2861C357.091 42.6033 358.011 40.3804 359.85 38.6175C361.767 36.7778 364.143 35.858 366.979 35.858C369.815 35.858 372.153 36.7778 373.992 38.6175C375.909 40.3804 376.867 42.6033 376.867 45.2861C376.867 47.9689 375.909 50.2301 373.992 52.0698C372.153 53.8328 369.815 54.7142 366.979 54.7142ZM374.912 62.3027V126H358.815V62.3027H374.912ZM415.766 61.2679C420.518 61.2679 424.696 62.2261 428.298 64.1424C431.901 65.982 434.737 68.3965 436.807 71.3859V62.3027H453.018V126.46C453.018 132.362 451.83 137.613 449.454 142.212C447.078 146.887 443.514 150.567 438.761 153.25C434.009 156.009 428.26 157.389 421.515 157.389C412.47 157.389 405.035 155.281 399.209 151.065C393.46 146.849 390.203 141.1 389.436 133.818H405.418C406.261 136.731 408.062 139.031 410.822 140.717C413.658 142.48 417.069 143.362 421.055 143.362C425.731 143.362 429.525 141.943 432.438 139.107C435.35 136.348 436.807 132.132 436.807 126.46V116.572C434.737 119.561 431.863 122.052 428.183 124.045C424.581 126.038 420.442 127.035 415.766 127.035C410.4 127.035 405.495 125.655 401.049 122.896C396.603 120.136 393.077 116.265 390.471 111.283C387.941 106.224 386.677 100.437 386.677 93.9214C386.677 87.4827 387.941 81.7722 390.471 76.7898C393.077 71.8075 396.565 67.9749 400.934 65.2921C405.38 62.6093 410.324 61.2679 415.766 61.2679ZM436.807 94.1514C436.807 90.2421 436.04 86.9078 434.507 84.1484C432.974 81.3123 430.905 79.166 428.298 77.7096C425.692 76.1766 422.894 75.4101 419.905 75.4101C416.916 75.4101 414.156 76.1383 411.627 77.5947C409.097 79.051 407.028 81.1973 405.418 84.0334C403.885 86.7928 403.118 90.0888 403.118 93.9214C403.118 97.754 403.885 101.127 405.418 104.039C407.028 106.875 409.097 109.06 411.627 110.593C414.233 112.126 416.992 112.893 419.905 112.893C422.894 112.893 425.692 112.164 428.298 110.708C430.905 109.175 432.974 107.029 434.507 104.269C436.04 101.433 436.807 98.0606 436.807 94.1514ZM504.038 61.3829C511.626 61.3829 517.758 63.7974 522.434 68.6265C527.11 73.3788 529.448 80.0475 529.448 88.6325V126H513.351V90.817C513.351 85.758 512.086 81.8871 509.557 79.2044C507.027 76.4449 503.578 75.0652 499.209 75.0652C494.763 75.0652 491.237 76.4449 488.631 79.2044C486.101 81.8871 484.837 85.758 484.837 90.817V126H468.74V62.3027H484.837V70.2361C486.983 67.4767 489.704 65.3305 493 63.7974C496.373 62.1878 500.052 61.3829 504.038 61.3829Z" fill="#333333"/>
</svg>
