<svg width="1920" height="317" viewBox="0 0 1920 317" fill="none" xmlns="http://www.w3.org/2000/svg">
<path d="M-60.7764 219C-34.6077 250.737 -4.5631 272.942 32.9906 290.158C101.652 321.635 168.977 320.012 241.467 301.82C292.214 289.084 340.565 269.784 389.258 251.009C427.589 236.23 466.228 220.18 507.537 215.906C531.403 213.437 561.296 213.586 582.027 227.806C600.16 240.243 615.738 266.828 604.16 289.206C596.764 303.502 561.311 319.601 551.684 297.417C538.519 267.08 614.714 259.899 622.485 259.458C666.947 256.934 712.348 266.176 749.57 291.11C838.867 350.926 1011.85 246.898 1107.86 222.094C1260.76 182.593 1773.1 21.0569 1930 2" stroke="#FF0000" stroke-width="3" stroke-linecap="round"/>
</svg>
