<svg width="145" height="45" viewBox="0 0 145 45" fill="none" xmlns="http://www.w3.org/2000/svg">
<path d="M12.7439 33L8.16918 24.9199H6.20858V33H2.04972V12.2651H9.83272C11.4369 12.2651 12.8033 12.5523 13.9322 13.1266C15.061 13.6811 15.9027 14.4436 16.4572 15.414C17.0315 16.3646 17.3187 17.434 17.3187 18.6222C17.3187 19.9887 16.9226 21.2265 16.1304 22.3355C15.3383 23.4247 14.1599 24.1773 12.5954 24.5932L17.5563 33H12.7439ZM6.20858 21.8008H9.68419C10.813 21.8008 11.6547 21.5334 12.2092 20.9987C12.7637 20.4442 13.041 19.6818 13.041 18.7114C13.041 17.7608 12.7637 17.028 12.2092 16.5131C11.6547 15.9784 10.813 15.711 9.68419 15.711H6.20858V21.8008ZM25.239 15.6219V20.8205H32.22V24.1179H25.239V29.6135H33.1112V33H21.0802V12.2354H33.1112V15.6219H25.239Z" fill="#FF0000"/>
<path d="M78.6628 24.4149C78.6628 25.0091 78.6232 25.5438 78.544 26.0191H66.513C66.612 27.2073 67.0279 28.1381 67.7607 28.8114C68.4934 29.4848 69.3945 29.8214 70.4639 29.8214C72.0087 29.8214 73.1078 29.158 73.7613 27.8311H78.2469C77.7716 29.4155 76.8606 30.7225 75.514 31.7523C74.1673 32.7624 72.5137 33.2674 70.5531 33.2674C68.9687 33.2674 67.5428 32.9208 66.2754 32.2276C65.0277 31.5147 64.0474 30.5146 63.3345 29.2273C62.6413 27.9401 62.2948 26.4548 62.2948 24.7714C62.2948 23.0683 62.6413 21.5731 63.3345 20.2858C64.0276 18.9985 64.998 18.0083 66.2457 17.3152C67.4933 16.622 68.9291 16.2755 70.5531 16.2755C72.1176 16.2755 73.5138 16.6121 74.7416 17.2855C75.9893 17.9588 76.9498 18.9193 77.6231 20.167C78.3162 21.3948 78.6628 22.8108 78.6628 24.4149ZM74.3554 23.2267C74.3356 22.1573 73.9494 21.3057 73.1969 20.672C72.4443 20.0184 71.5235 19.6917 70.4342 19.6917C69.4044 19.6917 68.533 20.0085 67.8201 20.6423C67.1269 21.2562 66.7012 22.1177 66.5427 23.2267H74.3554ZM87.9961 33.2674C86.6494 33.2674 85.4414 33.0297 84.372 32.5544C83.3025 32.0593 82.451 31.3959 81.8172 30.5641C81.2033 29.7323 80.8666 28.8114 80.8072 27.8014H84.9958C85.075 28.4352 85.382 28.96 85.9167 29.3759C86.4712 29.7917 87.1544 29.9997 87.9664 29.9997C88.7586 29.9997 89.3725 29.8413 89.8082 29.5244C90.2637 29.2075 90.4914 28.8015 90.4914 28.3064C90.4914 27.7717 90.2142 27.3756 89.6596 27.1182C89.1249 26.8409 88.2635 26.5439 87.0752 26.227C85.8474 25.9299 84.8374 25.623 84.0452 25.3061C83.2728 24.9893 82.5995 24.5041 82.0252 23.8505C81.4707 23.197 81.1934 22.3157 81.1934 21.2067C81.1934 20.2957 81.4509 19.4639 81.9658 18.7114C82.5005 17.9588 83.253 17.3647 84.2234 16.929C85.2136 16.4933 86.3722 16.2755 87.699 16.2755C89.6596 16.2755 91.2242 16.7706 92.3926 17.7608C93.561 18.7312 94.2047 20.0481 94.3235 21.7117H90.3429C90.2835 21.0581 90.0062 20.5432 89.5111 20.167C89.0358 19.7709 88.3922 19.5728 87.5802 19.5728C86.8277 19.5728 86.2434 19.7115 85.8276 19.9887C85.4315 20.266 85.2334 20.6522 85.2334 21.1473C85.2334 21.7018 85.5107 22.1276 86.0652 22.4246C86.6197 22.7019 87.4812 22.989 88.6496 23.2861C89.8379 23.5832 90.8182 23.8901 91.5905 24.207C92.3629 24.5239 93.0263 25.019 93.5809 25.6923C94.1552 26.3458 94.4522 27.2172 94.472 28.3064C94.472 29.257 94.2047 30.1086 93.67 30.8612C93.1551 31.6137 92.4025 32.2078 91.4123 32.6435C90.4419 33.0594 89.3032 33.2674 87.9961 33.2674ZM99.9951 14.5822C99.2623 14.5822 98.6484 14.3545 98.1533 13.899C97.678 13.4237 97.4403 12.8395 97.4403 12.1463C97.4403 11.4532 97.678 10.8789 98.1533 10.4234C98.6484 9.94806 99.2623 9.71041 99.9951 9.71041C100.728 9.71041 101.332 9.94806 101.807 10.4234C102.302 10.8789 102.55 11.4532 102.55 12.1463C102.55 12.8395 102.302 13.4237 101.807 13.899C101.332 14.3545 100.728 14.5822 99.9951 14.5822ZM102.045 16.5428V33H97.8859V16.5428H102.045ZM112.6 16.2755C113.828 16.2755 114.907 16.523 115.838 17.0181C116.769 17.4934 117.501 18.1172 118.036 18.8896V16.5428H122.225V33.1188C122.225 34.6437 121.918 36.0003 121.304 37.1886C120.69 38.3966 119.769 39.3472 118.541 40.0403C117.313 40.7533 115.828 41.1098 114.085 41.1098C111.748 41.1098 109.827 40.5652 108.322 39.4759C106.837 38.3867 105.995 36.9014 105.797 35.02H109.926C110.144 35.7726 110.61 36.3667 111.323 36.8024C112.055 37.2579 112.937 37.4856 113.966 37.4856C115.174 37.4856 116.155 37.1192 116.907 36.3865C117.66 35.6735 118.036 34.5843 118.036 33.1188V30.5641C117.501 31.3365 116.759 31.9801 115.808 32.495C114.877 33.0099 113.808 33.2674 112.6 33.2674C111.214 33.2674 109.946 32.9109 108.798 32.1979C107.649 31.485 106.738 30.4849 106.065 29.1976C105.411 27.8905 105.084 26.3953 105.084 24.712C105.084 23.0485 105.411 21.5731 106.065 20.2858C106.738 18.9985 107.639 18.0083 108.768 17.3152C109.917 16.622 111.194 16.2755 112.6 16.2755ZM118.036 24.7714C118.036 23.7614 117.838 22.8999 117.442 22.187C117.046 21.4542 116.511 20.8997 115.838 20.5234C115.165 20.1274 114.442 19.9293 113.669 19.9293C112.897 19.9293 112.184 20.1175 111.531 20.4937C110.877 20.87 110.342 21.4245 109.926 22.1573C109.53 22.8702 109.332 23.7218 109.332 24.712C109.332 25.7022 109.53 26.5736 109.926 27.3261C110.342 28.0589 110.877 28.6233 111.531 29.0194C112.204 29.4155 112.917 29.6135 113.669 29.6135C114.442 29.6135 115.165 29.4254 115.838 29.0491C116.511 28.653 117.046 28.0985 117.442 27.3855C117.838 26.6528 118.036 25.7814 118.036 24.7714ZM135.406 16.3052C137.367 16.3052 138.951 16.929 140.159 18.1767C141.367 19.4045 141.971 21.1275 141.971 23.3455V33H137.813V23.9099C137.813 22.6029 137.486 21.6028 136.832 20.9096C136.179 20.1967 135.288 19.8402 134.159 19.8402C133.01 19.8402 132.099 20.1967 131.426 20.9096C130.772 21.6028 130.445 22.6029 130.445 23.9099V33H126.287V16.5428H130.445V18.5925C131 17.8796 131.703 17.3251 132.555 16.929C133.426 16.5131 134.377 16.3052 135.406 16.3052Z" fill="#FF0000"/>
<path d="M38.6123 13.3137V30.9135H49.4046C54.2647 30.9135 58.2045 26.9737 58.2045 22.1136C58.2045 17.2536 54.2647 13.3137 49.4046 13.3137H38.6123Z" stroke="#FF0000" stroke-width="3.65279"/>
<path d="M46.2197 13.6152V30.9438" stroke="#FF0000" stroke-width="3.65279"/>
</svg>
