<svg width="197" height="32" viewBox="0 0 197 32" fill="none" xmlns="http://www.w3.org/2000/svg">
<path d="M22.9191 5.99494V11.267H29.8189V14.6111H22.9191V20.1844H30.6997V23.6188H18.8086V2.56055H30.6997V5.99494H22.9191Z" fill="currentColor"/>
<path d="M10.5699 23.618L6.04832 15.4236H4.11051V23.618H0V2.58984H7.69253C9.27801 2.58984 10.6286 2.88106 11.7443 3.46351C12.86 4.02586 13.6919 4.7991 14.24 5.78323C14.8076 6.74727 15.0914 7.83181 15.0914 9.03686C15.0914 10.4227 14.7 11.6779 13.917 12.8026C13.1341 13.9073 11.9694 14.6705 10.4231 15.0922L15.3263 23.618H10.5699ZM4.11051 12.2604H7.54572C8.66144 12.2604 9.49332 11.9892 10.0414 11.447C10.5895 10.8846 10.8635 10.1114 10.8635 9.12724C10.8635 8.1632 10.5895 7.42009 10.0414 6.8979C9.49332 6.35563 8.66144 6.08449 7.54572 6.08449H4.11051V12.2604Z" fill="currentColor"/>
<path d="M131.808 6.68848C133.746 6.68848 135.311 7.32113 136.505 8.58643C137.699 9.83165 138.296 11.579 138.296 13.8284V23.6194H134.186V14.4008C134.186 13.0752 133.863 12.061 133.217 11.358C132.571 10.635 131.69 10.2735 130.575 10.2735C129.439 10.2735 128.539 10.635 127.873 11.358C127.227 12.061 126.904 13.0752 126.904 14.4008V23.6194H122.794V6.92949H126.904V9.0082C127.453 8.28517 128.147 7.72281 128.989 7.32113C129.85 6.89936 130.79 6.68848 131.808 6.68848Z" fill="currentColor"/>
<path d="M109.267 6.6582C110.481 6.6582 111.548 6.90925 112.467 7.41136C113.387 7.89338 114.112 8.52603 114.64 9.30931V6.92934H118.78V23.7398C118.78 25.2863 118.477 26.662 117.87 27.8671C117.263 29.0922 116.353 30.0563 115.139 30.7592C113.926 31.4822 112.458 31.8438 110.735 31.8438C108.425 31.8438 106.527 31.2914 105.039 30.1868C103.571 29.0822 102.739 27.5759 102.544 25.6679H106.625C106.84 26.4311 107.3 27.0336 108.005 27.4755C108.729 27.9374 109.6 28.1684 110.618 28.1684C111.812 28.1684 112.781 27.7968 113.524 27.0537C114.268 26.3307 114.64 25.226 114.64 23.7398V21.1489C114.112 21.9322 113.378 22.585 112.438 23.1071C111.518 23.6293 110.461 23.8904 109.267 23.8904C107.897 23.8904 106.644 23.5289 105.509 22.8059C104.374 22.0829 103.473 21.0686 102.808 19.7631C102.162 18.4376 101.839 16.9212 101.839 15.2141C101.839 13.527 102.162 12.0307 102.808 10.7252C103.473 9.41978 104.364 8.41557 105.48 7.71262C106.615 7.00968 107.877 6.6582 109.267 6.6582ZM114.64 15.2743C114.64 14.25 114.444 13.3764 114.053 12.6533C113.661 11.9102 113.133 11.3479 112.467 10.9663C111.802 10.5646 111.088 10.3637 110.324 10.3637C109.561 10.3637 108.856 10.5545 108.21 10.9361C107.564 11.3177 107.036 11.8801 106.625 12.6232C106.233 13.3462 106.037 14.2099 106.037 15.2141C106.037 16.2183 106.233 17.102 106.625 17.8652C107.036 18.6083 107.564 19.1807 108.21 19.5824C108.876 19.9841 109.58 20.1849 110.324 20.1849C111.088 20.1849 111.802 19.9941 112.467 19.6125C113.133 19.2108 113.661 18.6485 114.053 17.9254C114.444 17.1823 114.64 16.2986 114.64 15.2743Z" fill="currentColor"/>
<path d="M96.8082 4.94071C96.084 4.94071 95.4772 4.70974 94.9879 4.2478C94.5181 3.76578 94.2832 3.1733 94.2832 2.47035C94.2832 1.76741 94.5181 1.18497 94.9879 0.72303C95.4772 0.24101 96.084 0 96.8082 0C97.5325 0 98.1295 0.24101 98.5992 0.72303C99.0886 1.18497 99.3333 1.76741 99.3333 2.47035C99.3333 3.1733 99.0886 3.76578 98.5992 4.2478C98.1295 4.70974 97.5325 4.94071 96.8082 4.94071ZM98.8341 6.92904V23.619H94.7236V6.92904H98.8341Z" fill="currentColor"/>
<path d="M84.9491 23.8904C83.618 23.8904 82.424 23.6494 81.367 23.1674C80.3101 22.6653 79.4684 21.9925 78.842 21.1489C78.2352 20.3054 77.9025 19.3715 77.8438 18.3472H81.9836C82.0619 18.9899 82.3653 19.5221 82.8938 19.9439C83.4419 20.3657 84.1172 20.5765 84.9197 20.5765C85.7027 20.5765 86.3094 20.4159 86.7401 20.0945C87.1903 19.7732 87.4154 19.3614 87.4154 18.8593C87.4154 18.3171 87.1413 17.9154 86.5933 17.6543C86.0648 17.3731 85.2133 17.0718 84.0389 16.7505C82.8253 16.4492 81.827 16.1379 81.0441 15.8166C80.2807 15.4952 79.6152 15.0032 79.0475 14.3404C78.4995 13.6776 78.2254 12.7839 78.2254 11.6592C78.2254 10.7353 78.4799 9.89176 78.9888 9.12856C79.5173 8.36536 80.2611 7.76283 81.2202 7.32098C82.1989 6.87913 83.344 6.6582 84.6555 6.6582C86.5933 6.6582 88.1396 7.16031 89.2945 8.16452C90.4493 9.14864 91.0855 10.4842 91.2029 12.1713H87.2686C87.2098 11.5085 86.9358 10.9863 86.4465 10.6047C85.9767 10.2031 85.3405 10.0022 84.538 10.0022C83.7942 10.0022 83.2168 10.1428 82.8057 10.424C82.4142 10.7052 82.2185 11.0968 82.2185 11.5989C82.2185 12.1613 82.4925 12.5931 83.0406 12.8943C83.5887 13.1755 84.4401 13.4667 85.595 13.768C86.7694 14.0693 87.7383 14.3806 88.5017 14.7019C89.2651 15.0233 89.9208 15.5254 90.4689 16.2082C91.0365 16.871 91.3301 17.7547 91.3497 18.8593C91.3497 19.8234 91.0855 20.687 90.557 21.4502C90.0481 22.2134 89.3042 22.8159 88.3256 23.2578C87.3664 23.6795 86.2409 23.8904 84.9491 23.8904Z" fill="currentColor"/>
<path d="M75.7237 14.9128C75.7237 15.5153 75.6846 16.0576 75.6063 16.5396H63.7151C63.813 17.7447 64.2241 18.6886 64.9483 19.3715C65.6725 20.0543 66.5631 20.3958 67.6201 20.3958C69.1469 20.3958 70.2332 19.723 70.8792 18.3773H75.3126C74.8429 19.9841 73.9425 21.3096 72.6115 22.354C71.2804 23.3783 69.646 23.8904 67.7082 23.8904C66.1423 23.8904 64.733 23.539 63.4802 22.836C62.2471 22.113 61.2782 21.0987 60.5735 19.7933C59.8884 18.4878 59.5459 16.9815 59.5459 15.2743C59.5459 13.5471 59.8884 12.0307 60.5735 10.7252C61.2586 9.41978 62.2177 8.41557 63.4509 7.71262C64.684 7.00968 66.1031 6.6582 67.7082 6.6582C69.2545 6.6582 70.6345 6.99963 71.8481 7.68249C73.0812 8.36536 74.0306 9.33944 74.6961 10.6047C75.3812 11.85 75.7237 13.286 75.7237 14.9128ZM71.4664 13.7077C71.4468 12.6232 71.0651 11.7596 70.3213 11.1169C69.5775 10.4541 68.6673 10.1227 67.5908 10.1227C66.5729 10.1227 65.7117 10.4441 65.007 11.0868C64.3219 11.7094 63.9011 12.583 63.7445 13.7077H71.4664Z" fill="currentColor"/>
<path fill-rule="evenodd" clip-rule="evenodd" d="M34.333 1.80176H46.8051C52.6056 1.80176 57.3078 6.6266 57.3078 12.5783C57.3078 18.5301 52.6056 23.3549 46.8051 23.3549H34.333V1.80176ZM37.9433 5.50621V19.6505H46.8051C50.6116 19.6505 53.6975 16.4842 53.6975 12.5783C53.6975 8.67252 50.6116 5.50621 46.8051 5.50621H37.9433Z" fill="currentColor"/>
<path fill-rule="evenodd" clip-rule="evenodd" d="M41.8516 21.5346V3.96094H45.4619V21.5346H41.8516Z" fill="currentColor"/>
<path d="M177.678 2.60742C179.214 3.75942 180.51 4.91142 181.566 6.06342L179.862 7.79142C178.926 6.68742 177.63 5.48742 175.974 4.23942L177.678 2.60742ZM174.486 9.42342H180.03V19.3834C180.726 18.7594 181.47 18.0874 182.262 17.3434L182.958 19.9834C181.374 21.4234 179.694 22.6954 177.918 23.8474L176.958 21.5914C177.366 21.2314 177.582 20.7754 177.582 20.2474V11.8234H174.486V9.42342ZM183.078 12.3034H194.79V14.5834C194.118 16.6474 193.014 18.4474 191.478 19.9594C192.966 20.9194 194.766 21.7594 196.902 22.5034L195.558 24.6634C193.206 23.7034 191.214 22.6474 189.63 21.4714C187.758 22.7914 185.478 23.8474 182.742 24.6394L181.35 22.5274C183.822 21.8074 185.91 20.8954 187.638 19.7914C186.102 18.2554 185.022 16.5754 184.446 14.7034H183.078V12.3034ZM186.798 14.7034C187.326 16.0714 188.19 17.3194 189.438 18.4234C190.662 17.3194 191.598 16.0954 192.27 14.7034H186.798ZM184.71 3.01542H193.35V7.98342C193.35 8.51142 193.638 8.79942 194.238 8.79942H196.302V11.0794H193.566C191.766 11.0794 190.878 10.2394 190.878 8.55942V5.36742H187.182V6.01542C187.182 8.51142 185.886 10.4554 183.342 11.7994L181.662 9.87942C183.678 9.03942 184.71 7.83942 184.71 6.27942V3.01542Z" fill="currentColor"/>
<path d="M158.982 19.3359V21.7359C156.606 22.5999 153.918 23.3199 150.918 23.8479L150.582 21.3759C153.774 20.8719 156.582 20.1999 158.982 19.3359ZM154.758 2.2959L157.134 3.2319C155.958 6.0159 154.758 8.2959 153.534 10.0719C154.422 9.9759 155.31 9.8559 156.198 9.7119C156.678 8.7999 157.206 7.8399 157.758 6.8079L160.014 7.6719C157.902 11.5359 156.126 14.3919 154.662 16.2639C156.198 15.8799 157.734 15.3759 159.318 14.7759V17.0559C156.558 18.1119 153.942 18.7839 151.494 19.1199L150.846 16.8399C151.278 16.6479 151.662 16.3839 151.974 16.0959C152.742 15.3279 153.726 13.9599 154.878 12.0399L151.11 12.5439L150.486 10.2399C150.87 10.0479 151.23 9.7359 151.566 9.2799C152.79 7.1679 153.846 4.8399 154.758 2.2959ZM164.79 6.1119H160.11V3.6879H171.942V6.1119H167.31V21.1119H172.566V23.5599H159.438V21.1119H164.79V6.1119Z" fill="#FF0000"/>
<rect x="142.551" y="19" width="4" height="4" fill="#FF0000"/>
</svg>
